<svg width="16" height="17" viewBox="0 0 16 17" fill="none" xmlns="http://www.w3.org/2000/svg">
<path d="M7.40016 2.5C4.96705 2.50438 3.69295 2.56411 2.87871 3.37836C2 4.25706 2 5.67132 2 8.49983C2 11.3283 2 12.7426 2.8787 13.6213C3.75741 14.5 5.17166 14.5 8.00017 14.5C10.8287 14.5 12.2429 14.5 13.1216 13.6213C13.9359 12.8071 13.9956 11.533 14 9.09984" stroke="#3587E3" stroke-width="1.5" stroke-linecap="round" stroke-linejoin="round"/>
<path d="M14.2239 3.36484C14.5175 3.07259 14.5185 2.59772 14.2263 2.30418C13.934 2.01064 13.4591 2.00959 13.1656 2.30183L14.2239 3.36484ZM6.80416 8.63516C6.51062 8.92741 6.50957 9.40228 6.80181 9.69582C7.09405 9.98936 7.56893 9.99041 7.86247 9.69817L6.80416 8.63516ZM13.3523 2.65138L13.2215 3.38988L13.3523 2.65138ZM10.6666 1.75C10.2524 1.75004 9.91662 2.08585 9.91666 2.50007C9.91669 2.91428 10.2525 3.25004 10.6667 3.25L10.6666 1.75ZM13.25 5.83333C13.25 6.24755 13.5858 6.58333 14 6.58333C14.4142 6.58333 14.75 6.24755 14.75 5.83333L13.25 5.83333ZM13.8486 3.14783L14.5872 3.01717V3.01717L13.8486 3.14783ZM13.1656 2.30183L6.80416 8.63516L7.86247 9.69817L14.2239 3.36484L13.1656 2.30183ZM13.4831 1.91287C12.9961 1.82662 12.275 1.78808 11.7137 1.76928C11.425 1.75961 11.1641 1.7548 10.9755 1.7524C10.8811 1.7512 10.8045 1.7506 10.7512 1.7503C10.7245 1.75015 10.7037 1.75008 10.6894 1.75004C10.6822 1.75002 10.6767 1.75001 10.6729 1.75C10.6709 1.75 10.6695 1.75 10.6684 1.75C10.6679 1.75 10.6675 1.75 10.6672 1.75C10.667 1.75 10.6669 1.75 10.6668 1.75C10.6667 1.75 10.6667 1.75 10.6667 1.75C10.6666 1.75 10.6666 1.75 10.6667 2.5C10.6667 3.25 10.6667 3.25 10.6667 3.25C10.6667 3.25 10.6667 3.25 10.6667 3.25C10.6667 3.25 10.6667 3.25 10.6668 3.25C10.667 3.25 10.6672 3.25 10.6676 3.25C10.6683 3.25 10.6694 3.25 10.671 3.25C10.6742 3.25001 10.679 3.25002 10.6854 3.25003C10.6983 3.25007 10.7177 3.25014 10.7427 3.25028C10.7929 3.25056 10.8659 3.25113 10.9564 3.25228C11.1377 3.25459 11.3878 3.25921 11.6635 3.26844C12.2312 3.28745 12.8528 3.32459 13.2215 3.38988L13.4831 1.91287ZM14 5.83333C14.75 5.83333 14.75 5.8333 14.75 5.83325C14.75 5.83323 14.75 5.83318 14.75 5.83313C14.75 5.83303 14.75 5.83291 14.75 5.83276C14.75 5.83245 14.75 5.83204 14.75 5.83151C14.75 5.83047 14.75 5.82898 14.75 5.82706C14.75 5.82324 14.75 5.8177 14.75 5.81054C14.7499 5.79622 14.7498 5.77539 14.7497 5.74875C14.7494 5.69547 14.7488 5.61887 14.7476 5.52445C14.7452 5.33584 14.7403 5.075 14.7306 4.78631C14.7118 4.22507 14.6733 3.50404 14.5872 3.01717L13.1101 3.27849C13.1753 3.64724 13.2125 4.26896 13.2315 4.83657C13.2407 5.11231 13.2454 5.36241 13.2477 5.54364C13.2488 5.63414 13.2494 5.70718 13.2497 5.75732C13.2498 5.78239 13.2499 5.80171 13.25 5.81461C13.25 5.82106 13.25 5.8259 13.25 5.82905C13.25 5.83063 13.25 5.83178 13.25 5.83249C13.25 5.83285 13.25 5.8331 13.25 5.83324C13.25 5.83331 13.25 5.83336 13.25 5.83337C13.25 5.83338 13.25 5.83337 13.25 5.83337C13.25 5.83336 13.25 5.83333 14 5.83333ZM13.2215 3.38988C13.2068 3.38727 13.178 3.37674 13.1506 3.34932C13.1232 3.32191 13.1127 3.29313 13.1101 3.27849L14.5872 3.01717C14.4861 2.44626 14.0542 2.01401 13.4831 1.91287L13.2215 3.38988Z" fill="#3587E3"/>
</svg>
